# File created by Blade
# Date/Time:  Wed Sep 24 19:25:39 2014
# Frame Rate: 120.000 fps
#------------------------------------------------------
:FULLY-SPECIFIED
:DEGREES
1593
root -15.152884 32.761318 -4.145299 16.948986 -18.793935 -0.613430
Spine -21.809866 30.030625 -3.869938
Head 17.961415 0.821678 4.500714
LeftShoulder -20.985522 31.260598 8.277878
LeftArm 5.201347 19.739989 -74.645553
LeftForeArm 6.840315 -0.000000 31.628608
LeftHand -27.281867 -0.000000 -2.483476
LeftHandThumb1 -26.253704 0.000000 33.147579
RightShoulder -17.585888 10.259594 -23.088966
RightArm -9.752185 -2.688100 71.491577
RightForeArm -10.648286 -0.000000 108.804386
RightHand -8.542589 -0.000000 -13.840840
RightHandThumb1 -24.326973 -0.000000 -32.862282
LeftUpLeg -36.727609 -30.680083 15.127056
LeftLeg 118.489676 -0.000000 -0.000000
LeftFoot 39.851888 5.373372 -15.267446
LeftToeBase 20.800792 -0.000000 -0.000000
RightUpLeg -12.449219 12.830388 1.781231
RightLeg -1.624043 -0.000000 0.000000
RightFoot -6.321115 19.609075 -7.989319
RightToeBase -7.790317 -0.000000 0.000000
1594
root -15.152977 32.764282 -4.152316 16.928545 -18.478132 -0.538251
Spine -21.763547 29.875916 -3.746144
Head 17.901957 0.842257 4.406645
LeftShoulder -20.925705 31.160062 8.314833
LeftArm 5.512913 19.709586 -74.635471
LeftForeArm 7.252331 -0.000000 32.467482
LeftHand -27.337567 0.000000 -2.429132
LeftHandThumb1 -26.253704 0.000000 33.147579
RightShoulder -17.528608 10.271112 -23.151182
RightArm -9.987047 -2.242594 71.472269
RightForeArm -10.731969 -0.000000 108.872218
RightHand -8.583109 -0.000000 -13.773240
RightHandThumb1 -24.326973 -0.000000 -32.862282
LeftUpLeg -36.652769 -30.576284 14.997344
LeftLeg 118.298262 -0.000000 -0.000000
LeftFoot 39.787345 5.449538 -15.288325
LeftToeBase 20.922256 -0.000000 -0.000000
RightUpLeg -12.491611 12.643229 1.775728
RightLeg -1.536845 -0.000000 0.000000
RightFoot -6.376773 19.495038 -7.974471
RightToeBase -7.785807 -0.000000 0.000000
1595
root -15.147860 32.765205 -4.158597 16.869333 -18.152767 -0.426711
Spine -21.662530 29.754335 -3.629061
Head 17.787430 0.831910 4.279307
LeftShoulder -20.856860 31.107102 8.339039
LeftArm 5.918742 19.798437 -74.585551
LeftForeArm 7.645493 -0.000000 33.285029
LeftHand -27.315941 -0.000000 -2.120085
LeftHandThumb1 -26.253704 0.000000 33.147579
RightShoulder -17.484017 10.268593 -23.246660
RightArm -10.215868 -1.801068 71.467723
RightForeArm -10.916173 -0.000000 108.935026
RightHand -8.618686 -0.000000 -13.823118
RightHandThumb1 -24.326973 -0.000000 -32.862282
LeftUpLeg -36.548397 -30.490574 14.786914
LeftLeg 118.115660 -0.000000 -0.000000
LeftFoot 39.683254 5.711073 -15.478235
LeftToeBase 20.958028 -0.000000 -0.000000
RightUpLeg -12.530614 12.317404 1.775118
RightLeg -1.365231 -0.000000 0.000000
RightFoot -6.597471 19.409129 -8.153558
RightToeBase -7.745049 -0.000000 0.000000
1596
root -15.144660 32.768103 -4.164642 16.840897 -17.817361 -0.339350
Spine -21.608827 29.622867 -3.508080
Head 17.691872 0.808960 4.165331
LeftShoulder -20.797581 31.027949 8.384564
LeftArm 6.289810 19.891033 -74.577109
LeftForeArm 7.824472 -0.000000 34.067350
LeftHand -27.419438 -0.000000 -1.721718
LeftHandThumb1 -26.253704 0.000000 33.147579
RightShoulder -17.413975 10.285138 -23.315018
RightArm -10.478403 -1.325900 71.436798
RightForeArm -10.888162 0.000000 109.032317
RightHand -8.534516 -0.000000 -13.731772
RightHandThumb1 -24.326973 -0.000000 -32.862282
LeftUpLeg -36.512174 -30.451181 14.682986
LeftLeg 117.903565 -0.000000 -0.000000
LeftFoot 39.770713 5.591034 -15.724384
LeftToeBase 20.742206 -0.000000 -0.000000
RightUpLeg -12.539556 12.177318 1.739468
RightLeg -1.339485 -0.000000 0.000000
RightFoot -6.642468 19.240219 -8.154824
RightToeBase -7.725097 -0.000000 0.000000
1597
root -15.143072 32.770427 -4.175059 16.813936 -17.465366 -0.288412
Spine -21.519401 29.510517 -3.335051
Head 17.567144 0.765244 4.055500
LeftShoulder -20.720884 30.895662 8.448292
LeftArm 6.602104 19.894833 -74.623932
LeftForeArm 8.298303 0.000000 34.826348
LeftHand -27.375217 0.000000 -1.634555
LeftHandThumb1 -26.253704 0.000000 33.147579
RightShoulder -17.342733 10.297841 -23.383808
RightArm -10.740462 -1.005182 71.312252
RightForeArm -11.038543 -0.000000 109.143747
RightHand -8.664744 -0.000000 -14.065381
RightHandThumb1 -24.326973 -0.000000 -32.862282
LeftUpLeg -36.458253 -30.349844 14.575595
LeftLeg 117.702907 -0.000000 -0.000000
LeftFoot 39.746047 5.579572 -15.765086
LeftToeBase 21.080293 -0.000000 -0.000000
RightUpLeg -12.558700 12.030313 1.743306
RightLeg -1.286445 -0.000000 0.000000
RightFoot -6.663062 19.098492 -8.076223
RightToeBase -7.631648 -0.000000 0.000000
1598
root -15.143568 32.773092 -4.184974 16.785646 -17.069965 -0.241181
Spine -21.429137 29.394831 -3.149766
Head 17.429856 0.686493 3.931300
LeftShoulder -20.604597 30.751612 8.497638
LeftArm 6.871538 19.926773 -74.645168
LeftForeArm 8.717645 -0.000000 35.635617
LeftHand -27.530916 0.000000 -1.597548
LeftHandThumb1 -26.253704 0.000000 33.147579
RightShoulder -17.308106 10.286569 -23.471928
RightArm -10.950014 -0.455501 71.336901
RightForeArm -11.187208 -0.000000 109.222186
RightHand -8.696960 -0.000000 -13.889697
RightHandThumb1 -24.326973 -0.000000 -32.862282
LeftUpLeg -36.427105 -30.281614 14.473809
LeftLeg 117.520805 -0.000000 -0.000000
LeftFoot 39.719235 5.539325 -15.751352
LeftToeBase 21.094526 -0.000000 -0.000000
RightUpLeg -12.564687 11.818507 1.772954
RightLeg -1.239233 -0.000000 0.000000
RightFoot -6.681894 18.982228 -8.016247
RightToeBase -7.585057 -0.000000 0.000000
1599
root -15.142312 32.775588 -4.195004 16.784136 -16.755228 -0.208301
Spine -21.389325 29.360451 -3.002547
Head 17.299268 0.580783 3.805162
LeftShoulder -20.517026 30.635137 8.541121
LeftArm 7.157342 19.981082 -74.640974
LeftForeArm 9.160722 -0.000000 36.407509
LeftHand -27.641115 -0.000000 -1.626214
LeftHandThumb1 -26.253704 0.000000 33.147579
RightShoulder -17.244390 10.266672 -23.535536
RightArm -11.179315 -0.015227 71.285365
RightForeArm -11.287297 -0.000000 109.323775
RightHand -8.710523 -0.000000 -13.965194
RightHandThumb1 -24.326973 -0.000000 -32.862282
LeftUpLeg -36.372975 -30.069412 14.336836
LeftLeg 117.311014 -0.000000 -0.000000
LeftFoot 39.705607 5.651070 -15.682760
LeftToeBase 21.074670 -0.000000 -0.000000
RightUpLeg -12.602654 11.736444 1.772202
RightLeg -1.191894 -0.000000 0.000000
RightFoot -6.703055 18.809181 -7.971068
RightToeBase -7.537034 -0.000000 0.000000
1600
root -15.148009 32.775987 -4.207189 16.750666 -16.321033 -0.179120
Spine -21.278507 29.203391 -2.801885
Head 17.143103 0.477312 3.729675
LeftShoulder -20.443023 30.541996 8.591718
LeftArm 7.459850 20.012153 -74.674602
LeftForeArm 9.536849 -0.000000 37.157952
LeftHand -27.658069 -0.000000 -1.588776
LeftHandThumb1 -26.253704 0.000000 33.147579
RightShoulder -17.199903 10.274403 -23.592768
RightArm -11.358482 0.360448 71.213171
RightForeArm -11.382462 -0.000000 109.407049
RightHand -8.779049 -0.000000 -14.015781
RightHandThumb1 -24.326973 -0.000000 -32.862282
LeftUpLeg -36.358406 -29.990396 14.283620
LeftLeg 117.105402 -0.000000 -0.000000
LeftFoot 39.713759 5.717571 -15.733589
LeftToeBase 21.095795 -0.000000 -0.000000
RightUpLeg -12.591181 11.485904 1.845144
RightLeg -1.155028 -0.000000 0.000000
RightFoot -6.727677 18.680590 -7.924302
RightToeBase -7.468047 -0.000000 0.000000
1601
root -15.147982 32.777515 -4.213828 16.728443 -16.000254 -0.140322
Spine -21.216806 29.161694 -2.663871
Head 17.009803 0.374431 3.642610
LeftShoulder -20.393945 30.501270 8.598989
LeftArm 7.757814 20.013339 -74.668121
LeftForeArm 9.859375 -0.000000 37.957058
LeftHand -27.688082 0.000000 -1.510360
LeftHandThumb1 -26.253704 0.000000 33.147579
RightShoulder -17.203016 10.248471 -23.646194
RightArm -11.477515 0.718610 71.176786
RightForeArm -11.505123 -0.000000 109.465144
RightHand -8.798220 -0.000000 -13.908467
RightHandThumb1 -24.326973 -0.000000 -32.862282
LeftUpLeg -36.287603 -29.796893 14.133182
LeftLeg 116.899992 -0.000000 -0.000000
LeftFoot 39.604360 5.782095 -15.749391
LeftToeBase 21.225214 -0.000000 -0.000000
RightUpLeg -12.577391 11.353109 1.857746
RightLeg -1.156917 -0.000000 0.000000
RightFoot -6.725049 18.540652 -7.839943
RightToeBase -7.407919 -0.000000 0.000000
1602
root -15.143113 32.779797 -4.222497 16.725582 -15.682603 -0.102117
Spine -21.167842 29.111560 -2.505691
Head 16.875809 0.277737 3.528444
LeftShoulder -20.327227 30.422603 8.601268
LeftArm 7.901821 19.948335 -74.738992
LeftForeArm 10.232317 -0.000000 38.808739
LeftHand -27.822935 -0.000000 -1.325465
LeftHandThumb1 -26.253704 0.000000 33.147579
RightShoulder -17.207736 10.219636 -23.709846
RightArm -11.553296 1.010641 71.124514
RightForeArm -11.559980 -0.000000 109.511869
RightHand -8.828515 -0.000000 -14.011521
RightHandThumb1 -24.326973 -0.000000 -32.862282
LeftUpLeg -36.267160 -29.598565 13.985226
LeftLeg 116.693969 -0.000000 -0.000000
LeftFoot 39.563338 5.940543 -15.857860
LeftToeBase 21.207877 -0.000000 -0.000000
RightUpLeg -12.589741 11.191049 1.866570
RightLeg -1.155291 -0.000000 0.000000
RightFoot -6.725566 18.414585 -7.784228
RightToeBase -7.450436 -0.000000 0.000000
1603
root -15.136540 32.781886 -4.232728 16.719383 -15.387000 -0.049047
Spine -21.109801 29.071217 -2.373416
Head 16.733286 0.170641 3.434439
LeftShoulder -20.258856 30.329495 8.620220
LeftArm 8.007401 19.880385 -74.834543
LeftForeArm 10.637211 -0.000000 39.659158
LeftHand -27.840794 -0.000000 -1.537298
LeftHandThumb1 -26.253704 0.000000 33.147579
RightShoulder -17.203461 10.228836 -23.721787
RightArm -11.615354 1.225869 70.980434
RightForeArm -11.594000 -0.000000 109.569403
RightHand -8.892485 -0.000000 -13.952708
RightHandThumb1 -24.326973 -0.000000 -32.862282
LeftUpLeg -36.239780 -29.359191 13.774400
LeftLeg 116.485318 -0.000000 -0.000000
LeftFoot 39.539153 6.010532 -15.757667
LeftToeBase 21.222724 -0.000000 -0.000000
RightUpLeg -12.622022 10.998903 1.866535
RightLeg -1.116531 -0.000000 0.000000
RightFoot -6.760430 18.306398 -7.766547
RightToeBase -7.412638 -0.000000 0.000000
1604
root -15.130879 32.783877 -4.242083 16.704375 -15.095168 0.007259
Spine -21.036273 29.022332 -2.236889
Head 16.603702 0.085390 3.339640
LeftShoulder -20.245600 30.278076 8.596557
LeftArm 8.162837 19.836236 -74.895624
LeftForeArm 10.965347 -0.000000 40.446112
LeftHand -27.869402 -0.000000 -1.359794
LeftHandThumb1 -26.253704 0.000000 33.147579
RightShoulder -17.197628 10.253784 -23.762269
RightArm -11.685887 1.436423 70.905862
RightForeArm -11.670653 -0.000000 109.605517
RightHand -8.861812 0.000000 -13.862692
RightHandThumb1 -24.326973 -0.000000 -32.862282
LeftUpLeg -36.197406 -29.098910 13.560996
LeftLeg 116.261195 -0.000000 -0.000000
LeftFoot 39.521748 6.126722 -15.730891
LeftToeBase 21.148806 -0.000000 -0.000000
RightUpLeg -12.627350 10.828274 1.861566
RightLeg -1.115628 -0.000000 0.000000
RightFoot -6.775730 18.181935 -7.723224
RightToeBase -7.368848 -0.000000 0.000000
